<?xml version="1.0" encoding="utf-8"?>
<!-- Generator: Adobe Illustrator 22.0.1, SVG Export Plug-In . SVG Version: 6.00 Build 0)  -->
<svg version="1.1" id="Слой_1" xmlns="http://www.w3.org/2000/svg" xmlns:xlink="http://www.w3.org/1999/xlink" x="0px" y="0px"
	 viewBox="0 0 237.6 84" style="enable-background:new 0 0 237.6 84;" xml:space="preserve">
<style type="text/css">
	.st0{fill:#FFFFFF;}
</style>
<path class="st0" d="M123.3,36.9c0,2.3-0.4,5.3-4,5.3c-1,0-2.4-0.1-3.4-0.2l-0.3-0.1V28.6l0.3-0.1c0.8-0.1,2.1-0.1,3.4-0.1
	c3.6,0,4,3,4,5.3V36.9z M129.3,33.6c0-6.6-3.5-10.2-10-10.2c-3.9,0-7.3,0.8-8.6,1.1c-1.1,0.2-1.1,0.4-1.1,0.9v28.8
	c0,0.2,0.3,0.5,0.6,0.5h5c0.3,0,0.5-0.3,0.5-0.5v-7.5l0.4,0.1c1.3,0.1,2.6,0.3,3.3,0.3c6.5,0,10-3.7,10-10.2v-3.3H129.3z"/>
<path class="st0" d="M105.3,46.2V43c0-0.1,0-0.4-0.6-0.4h-2c-1.5,0-1.7-0.6-1.7-2.2V28.1h3.7c0.3,0,0.5-0.3,0.5-0.6v-3.3
	c0-0.3-0.2-0.5-0.5-0.5H101V19c0-0.2-0.1-0.4-0.4-0.4h-0.1l-5,0.9c-0.3,0-0.6,0.2-0.6,0.5v3.7h-3.6c-0.3,0-0.6,0.3-0.6,0.6V27
	c0,0.4,0.3,0.6,0.6,0.6l3.5,0.6v12.2c0,5.7,2.2,6.8,6.6,6.8c1.2,0,2-0.1,3.2-0.4C105.1,46.6,105.3,46.5,105.3,46.2z"/>
<path class="st0" d="M87.6,45.8v-3.7c0-0.2-0.3-0.4-0.5-0.4H87c-1.5,0.1-2.7,0.3-5,0.3c-1.7,0-3.7-0.9-3.7-5v-3.5
	c0-4.2,2-5.1,3.7-5.1c2.4,0,3.5,0.1,5,0.3h0.1c0.2,0,0.5-0.1,0.5-0.4v-3.7c0-0.4-0.1-0.5-0.6-0.6c-1.2-0.3-3-0.6-5.4-0.6
	c-5.8,0-9.3,3.8-9.3,10.1V37c0,6.3,3.5,10.1,9.3,10.1c2.4,0,4.2-0.4,5.4-0.6C87.5,46.3,87.6,46.2,87.6,45.8z"/>
<path class="st0" d="M162.9,36.7c0,4.4-2.2,5.3-4,5.3c-2.6,0-4-1.9-4-5.3v-2.9c0-3.5,1.4-5.3,4-5.3c1.8,0,4,0.9,4,5.3V36.7z
	 M168.9,33.8c0-6.6-3.6-10.4-9.9-10.4c-6.3,0-10,3.9-10,10.4v2.9c0,6.5,3.7,10.4,10,10.4s9.9-3.8,9.9-10.4V33.8z"/>
<path class="st0" d="M145.9,23.4c-1.9,0-3.9,0.7-5.3,1.9l-0.5,0.4v-1.5c0-0.3-0.2-0.5-0.5-0.5h-4.9c-0.3,0-0.5,0.2-0.5,0.5v21.9
	c0,0.3,0.3,0.6,0.6,0.6h5c0.2,0,0.5-0.3,0.5-0.6V29.9l0.1-0.1c1.9-1,3.6-1.4,5.5-1.4h0.3c0.2,0,0.4-0.3,0.4-0.5V24
	C146.4,23.7,146.2,23.4,145.9,23.4z"/>
<path class="st0" d="M34.2,39.2l4.3,6.8c0.4,0.6,0.6,0.8,0.9,0.8h6.2c0.1,0,0.3-0.1,0.3-0.3c0-0.1-0.1-0.1-0.1-0.1l-7.6-11.2
	l6.9-10.9c0-0.1,0-0.1,0-0.2s0-0.2-0.1-0.2h-5.5c-0.2,0-0.4,0.1-0.8,0.7l-3.6,6l-4-6c-0.3-0.5-0.5-0.7-0.8-0.7h-6.1
	c-0.1,0-0.3,0.1-0.3,0.3c0,0.1,0,0.1,0,0.1L31,34.9l-7.3,11.5c0,0.1,0,0.1,0,0.2c0,0.2,0.1,0.2,0.1,0.2h5.5c0.3,0,0.5-0.1,0.9-0.7
	L34.2,39.2z"/>
<path class="st0" d="M61.4,41.6l-0.2,0.1c-1.2,0.6-2.4,0.9-3.5,0.9c-1.8,0-2.9-0.4-2.9-2.3v-0.4c0-2.4,1.1-3.3,3.9-3.3h2.7V41.6z
	 M58,23.4c-2.6,0-5.4,0.5-7.1,0.9c-0.2,0.1-0.6,0.2-0.6,0.6v3.3c0,0.3,0.1,0.4,0.5,0.4h0.1c1.2-0.1,4.2-0.3,6.8-0.3
	c1.7,0,3.4,0.4,3.4,3.2v1.7h-2.5c-6.8,0-9.8,2-9.8,6.7v0.4c0,5.8,4.2,6.8,6.7,6.8c2.2,0,3.8-0.6,5.5-1.8l0.5-0.4v1.2
	c0,0.3,0.2,0.6,0.5,0.6h4.6c0.3,0,0.5-0.3,0.5-0.6V31.5C67.3,26.1,64.3,23.4,58,23.4z"/>
<path class="st0" d="M14.5,33.5H6.4V33c0-3,1.5-4.9,4.1-4.9c2.5,0,4,1.8,4,4.9V33.5z M10.5,23.4c-6.3,0-10.1,4-10.1,10.5v2.9
	c0,9.5,7.7,10.3,10,10.3c3.7,0,5.9-0.4,8.3-1c0.6-0.1,0.6-0.3,0.6-0.8v-3.2c0-0.1,0-0.4-0.5-0.4h-0.1c-1.7,0.2-5.4,0.4-7.9,0.4
	c-2.9,0-4.5-1.7-4.5-4.8V37h13.4c0.5,0,0.6-0.4,0.6-0.7v-2.4C20.4,27.4,16.7,23.4,10.5,23.4z"/>
<path class="st0" d="M28.7,67c-0.3,0-0.6,0.1-1.7,0.1s-1.9-0.3-1.9-1.7v-3c0-1.4,0.9-1.7,1.9-1.7s1.4,0.1,1.7,0.1
	c0.1,0.1,0.1,0.1,0.1,0.2v0.5c0,0.1-0.1,0.2-0.1,0.2H27c-0.5,0-0.7,0.1-0.7,0.7v0.9h2.3c0.1,0,0.2,0.1,0.2,0.1V64
	c0,0.1-0.1,0.1-0.2,0.1h-2.3v1.1c0,0.6,0.2,0.7,0.7,0.7h1.7c0.1,0,0.1,0.1,0.1,0.2v0.5C28.8,66.9,28.8,67,28.7,67z"/>
<path class="st0" d="M36.2,67.1h-1c-0.1,0-0.1-0.1-0.2-0.2l-1.2-2l-1.2,2c0,0.1-0.1,0.2-0.2,0.2h-0.9c-0.1,0-0.1-0.1-0.1-0.1v-0.1
	l1.8-3l-1.9-3v-0.1c0-0.1,0.1-0.1,0.1-0.1h1c0.1,0,0.1,0.1,0.2,0.1l1.2,1.9l1.2-1.9c0.1-0.1,0.1-0.1,0.2-0.1h0.9
	c0.1,0,0.1,0,0.1,0.1v0.1l-1.8,3l1.9,3V67C36.4,67,36.3,67.1,36.2,67.1z"/>
<path class="st0" d="M39.9,67.1h-0.8c-0.1,0-0.2-0.1-0.2-0.2v-6c0-0.1,0.1-0.1,0.2-0.1h0.8c0.1,0,0.2,0.1,0.2,0.1v6
	C40.1,66.9,40.1,67.1,39.9,67.1z"/>
<path class="st0" d="M47,61.7h-1.5v5.2c0,0.1-0.1,0.2-0.2,0.2h-0.8c-0.1,0-0.2-0.1-0.2-0.2v-5.2h-1.4c-0.1,0-0.2,0-0.2-0.1V61
	c0-0.1,0.1-0.1,0.2-0.1H47c0.1,0,0.1,0.1,0.1,0.1L47,61.7C47.2,61.7,47.1,61.7,47,61.7z"/>
<path class="st0" d="M52,67.1c-1.4,0-2.3-0.6-2.3-2.4v-3.8c0-0.1,0.1-0.1,0.1-0.1h0.9c0.1,0,0.1,0.1,0.1,0.1v3.8
	c0,0.9,0.3,1.4,1.2,1.4s1.2-0.5,1.2-1.4v-3.8c0-0.1,0.1-0.1,0.2-0.1h0.9c0.1,0,0.1,0.1,0.1,0.1v3.8C54.4,66.5,53.4,67.1,52,67.1z"/>
<path class="st0" d="M58.9,67.1c-0.6,0-1.1,0-1.5-0.1c-0.1,0-0.1-0.1-0.1-0.1v-0.6c0-0.1,0.1-0.1,0.1-0.1l0,0
	c0.4,0.1,1.2,0.1,1.5,0.1c0.8,0,1-0.2,1-0.7c0-0.4-0.1-0.5-0.7-0.9L58,63.8c-0.8-0.5-1-1-1-1.6c0-0.9,0.6-1.6,2.2-1.6
	c0.6,0,1.3,0.1,1.6,0.1c0.1,0,0.2,0.1,0.2,0.1v0.6c0,0.1-0.1,0.1-0.1,0.1h-0.1c-0.5-0.1-1.1-0.1-1.7-0.1c-0.6,0-0.9,0.2-0.9,0.6
	c0,0.3,0.1,0.4,0.6,0.8l1.1,0.6c0.9,0.5,1.2,1,1.2,1.7C61.1,66.2,60.6,67.1,58.9,67.1z"/>
<path class="st0" d="M69.9,61.8C69.9,61.7,69.9,61.7,69.9,61.8c-0.2-0.1-0.2-0.1-0.2,0l-0.6,2.6h1.5L69.9,61.8z M72.2,67.1h-0.9
	c-0.1,0-0.1-0.1-0.1-0.2l-0.4-1.6h-1.9l-0.4,1.6c0,0.1-0.1,0.2-0.1,0.2h-0.9c-0.1,0-0.2-0.1-0.2-0.2h0.1l1.4-5.3
	c0.2-0.8,0.8-0.9,1.2-0.9c0.4,0,1,0.1,1.2,0.9l1.4,5.3l0,0C72.4,67,72.3,67.1,72.2,67.1z"/>
<path class="st0" d="M78.5,67c-0.1,0-0.7,0.1-1.4,0.1c-1,0-2.4-0.5-2.4-2.6v-1.2c0-2.2,1.4-2.6,2.4-2.6c0.6,0,1.2,0.1,1.4,0.1
	c0.1,0,0.2,0.1,0.2,0.1v0.6c0,0.1-0.1,0.2-0.2,0.2l0,0c-0.3-0.1-0.9-0.1-1.3-0.1c-0.7,0-1.3,0.4-1.3,1.6v1.2c0,1.2,0.6,1.6,1.3,1.6
	c0.4,0,1,0,1.3-0.1l0,0c0.1,0,0.2,0.1,0.2,0.2v0.6C78.7,66.9,78.6,66.9,78.5,67z"/>
<path class="st0" d="M85.3,61.7h-1.5v5.2c0,0.1-0.1,0.2-0.1,0.2h-0.9c-0.1,0-0.1-0.1-0.1-0.2v-5.2h-1.5c-0.1,0-0.1,0-0.1-0.1V61
	c0-0.1,0.1-0.1,0.1-0.1h4.2c0.1,0,0.1,0.1,0.1,0.1v0.6C85.5,61.7,85.4,61.7,85.3,61.7z"/>
<path class="st0" d="M90.3,61.8C90.3,61.7,90.2,61.7,90.3,61.8c-0.2-0.1-0.2-0.1-0.2,0l-0.6,2.6h1.4L90.3,61.8z M92.6,67.1h-0.9
	c-0.1,0-0.1-0.1-0.1-0.2l-0.4-1.6h-2l-0.4,1.6c0,0.1-0.1,0.2-0.1,0.2h-0.9c-0.1,0-0.1-0.1-0.1-0.2l0,0l1.4-5.3
	c0.1-0.8,0.8-0.9,1.2-0.9s1,0.1,1.2,0.9l1.4,5.3l0,0C92.7,67,92.7,67.1,92.6,67.1z"/>
<path class="st0" d="M102.3,62.6c0-0.7-0.4-1-1.3-1c-0.1,0-0.6,0.1-0.7,0.1v2c0.1,0,0.6,0,0.7,0C102,63.7,102.3,63.4,102.3,62.6
	L102.3,62.6z M101,64.7c-0.2,0-0.6-0.1-0.7-0.1v2.2c0,0.1-0.1,0.2-0.2,0.2h-0.9c-0.1,0-0.1-0.1-0.1-0.2V61c0-0.2,0.1-0.2,0.3-0.3
	c0.4-0.1,1-0.1,1.7-0.1c1.3,0,2.4,0.4,2.4,1.9v0.1C103.5,64.2,102.3,64.7,101,64.7z"/>
<path class="st0" d="M109.4,62.5c0-0.6-0.4-0.9-1.3-0.9c-0.2,0-0.6,0-0.8,0v1.9c0.1,0,0.6,0,0.8,0C108.9,63.6,109.4,63.4,109.4,62.5
	L109.4,62.5z M110.6,67.1h-1c-0.1,0-0.1-0.1-0.2-0.2l-1.2-2.2h-0.1c-0.2,0-0.6-0.1-0.8-0.1v2.3c0,0.1-0.1,0.2-0.1,0.2h-0.9
	c-0.1,0-0.1-0.1-0.1-0.2V61c0-0.2,0.1-0.2,0.3-0.3c0.4-0.1,1-0.1,1.7-0.1c1.3,0,2.4,0.4,2.4,1.9v0.1c0,0.9-0.4,1.5-1.2,1.8l1.3,2.4
	c0.1,0,0.1,0.1,0.1,0.1C110.7,67,110.7,67.1,110.6,67.1z"/>
<path class="st0" d="M116.9,63.3c0-1.2-0.4-1.7-1.2-1.7c-0.8,0-1.2,0.5-1.2,1.7v1.2c0,1.1,0.4,1.6,1.2,1.6c0.9,0,1.2-0.5,1.2-1.6
	V63.3z M115.6,67.1c-1.4,0-2.4-0.7-2.4-2.6v-1.2c0-1.9,1.1-2.7,2.4-2.7c1.4,0,2.4,0.8,2.4,2.7v1.2C118.1,66.4,117.1,67.1,115.6,67.1
	z"/>
<path class="st0" d="M124.2,65.1c0-0.4-0.3-0.9-1.1-0.9H122v1.9c0.2,0,0.6,0,0.7,0C123.8,66.1,124.1,65.8,124.2,65.1L124.2,65.1
	L124.2,65.1z M124.1,62.5c0-0.6-0.4-0.9-1.4-0.9c-0.2,0-0.4,0-0.6,0.1v1.7h1.1C123.9,63.4,124.1,63,124.1,62.5L124.1,62.5z
	 M122.8,67.1c-0.7,0-1.2,0-1.4-0.1c-0.3-0.1-0.4-0.1-0.4-0.4v-5.4c0-0.3,0.1-0.4,0.4-0.4c0.2-0.1,0.8-0.1,1.4-0.1
	c1.5,0,2.6,0.4,2.6,1.7v0.1c0,0.6-0.2,1.1-0.7,1.3c0.5,0.2,0.8,0.6,0.8,1.3v0.1C125.3,66.7,124.3,67.1,122.8,67.1z"/>
<path class="st0" d="M130.4,61.8c-0.1-0.1-0.1-0.1-0.1-0.1c-0.1,0-0.1,0-0.1,0.1l-0.6,2.6h1.5L130.4,61.8z M132.7,67.1h-0.9
	c-0.1,0-0.1-0.1-0.1-0.2l-0.4-1.6h-1.9l-0.4,1.6c0,0.1-0.1,0.2-0.1,0.2H128c-0.1,0-0.1-0.1-0.1-0.2l0,0l1.4-5.3
	c0.2-0.8,0.9-0.9,1.2-0.9c0.4,0,0.9,0.1,1.2,0.9l1.4,5.3l0,0C132.8,67,132.8,67.1,132.7,67.1z"/>
<path class="st0" d="M139.2,61.7h-1.5v5.2c0,0.1-0.1,0.2-0.1,0.2h-0.9c-0.1,0-0.1-0.1-0.1-0.2v-5.2h-1.5c-0.1,0-0.1,0-0.1-0.1V61
	c0-0.1,0.1-0.1,0.1-0.1h4.2c0.1,0,0.1,0.1,0.1,0.1v0.6C139.4,61.7,139.3,61.7,139.2,61.7z"/>
<path class="st0" d="M203.6,34c2.4,3.5,7.1,4.2,10.5,1.9c3.4-2.4,4.2-7.1,1.8-10.5s-7.1-4.2-10.4-1.8C202,26,201.2,30.7,203.6,34z"
	/>
<path class="st0" d="M237.1,37.6v-0.4c-0.1-3.6-1.7-6.8-3.7-8.5l0,0c-1.7-1.4-3.5-2-5-2c-1.7,0-3.3,0.7-4.4,2l0,0
	c-4.2,5-0.5,10.1,0.1,11.3l0,0c0.6,0.9,0.3,3.1-0.8,4.4l0,0c-4.5,5.5-13.3,6.4-17.5,6.6l0,0c-1.4,0-1.7,0.1-2.2,0.7l0,0
	c-0.5,0.6-0.4,1.2,0.4,1.9l0,0c0.7,0.6,1.9,0.6,2.7,0.8l0,0c3,0.4,18.5,1.5,27.3-8.9l0,0C236.2,43,237.1,40.2,237.1,37.6z"/>
<path class="st0" d="M192.7,12.7L192.7,12.7c-0.3,0-0.6,0.1-0.9,0.2l0,0c-0.9,0.3-1.4,1.4-2.1,1.9l0,0c-1.9,2.4-10.5,15.3-5.8,28.1
	l0,0c2.7,7.6,10.5,9.4,14.8,7.8l0,0c4.3-1.7,5.8-5.2,4.7-8.2l0,0c-2-5.5-7.3-5.5-9.4-5.5l0,0c-0.2,0-0.4,0-0.5,0l0,0
	c-1.1,0-2.8-1.3-3.4-2.9l0,0c-2.4-6.7,1.2-14.8,3.1-18.4l0,0c0.6-1.2,0.6-1.5,0.4-2.2l0,0C193.5,13,193.2,12.7,192.7,12.7z"/>
<path class="st0" d="M208.6,0.6c-6.6,0.1-10.9,5.2-11.5,9.1l0,0c-0.8,4.6,1.5,7.6,4.8,8.2l0,0c6.3,1.1,8.9-4.6,9.6-5.8l0,0
	c0.6-1,2.6-1.8,4.2-1.5l0,0c7,1.2,12.2,8.3,14.5,11.9l0,0c0.7,1.2,0.9,1.3,1.7,1.4l0,0c0.7,0.1,1.2-0.3,1.4-1.3l0,0
	c0.1-0.9-0.4-1.9-0.6-2.7l0,0c-1.1-2.8-8-16.8-21.4-19.1l0,0c-0.7-0.1-1.4-0.2-2.2-0.2l0,0C209.1,0.6,208.6,0.6,208.6,0.6z"/>
</svg>
