<?xml version="1.0" encoding="utf-8"?>
<!-- Generator: Adobe Illustrator 22.0.1, SVG Export Plug-In . SVG Version: 6.00 Build 0)  -->
<svg version="1.1" id="Слой_1" xmlns="http://www.w3.org/2000/svg" xmlns:xlink="http://www.w3.org/1999/xlink" x="0px" y="0px"
	 viewBox="0 0 300 106" style="enable-background:new 0 0 300 106;" xml:space="preserve">
<style type="text/css">
	.st0{clip-path:url(#SVGID_2_);fill:url(#SVGID_3_);}
	.st1{clip-path:url(#SVGID_5_);fill:url(#SVGID_6_);}
	.st2{clip-path:url(#SVGID_8_);fill:url(#SVGID_9_);}
	.st3{fill:#0898CC;}
	.st4{fill:#12284C;}
</style>
<g>
	<g>
		<defs>
			<path id="SVGID_1_" d="M283.4,46.9c-5.3,6.4-0.6,12.8,0.1,14.3c0.8,1.1,0.4,3.9-1,5.5c-5.7,7-16.8,8.2-22.2,8.4
				c-1.8,0-2.1,0.1-2.8,0.9c-0.6,0.8-0.5,1.5,0.5,2.4c0.9,0.8,2.4,0.8,3.4,1c3.8,0.5,23.5,1.9,34.7-11.3c2.8-3.1,3.9-6.8,3.9-10
				v-0.5c-0.1-4.5-2.1-8.7-4.7-10.8c-2.1-1.8-4.4-2.5-6.4-2.5C286.8,44.3,284.8,45.2,283.4,46.9"/>
		</defs>
		<clipPath id="SVGID_2_">
			<use xlink:href="#SVGID_1_"  style="overflow:visible;"/>
		</clipPath>
		
			<linearGradient id="SVGID_3_" gradientUnits="userSpaceOnUse" x1="-270.9827" y1="-249.5391" x2="-268.7622" y2="-249.5391" gradientTransform="matrix(4.0529 -12.4913 -12.4913 -4.0529 -1744.6708 -4320.2476)">
			<stop  offset="0" style="stop-color:#73BDE9"/>
			<stop  offset="0.102" style="stop-color:#73BDE9"/>
			<stop  offset="0.6314" style="stop-color:#0898CC"/>
			<stop  offset="1" style="stop-color:#0898CC"/>
		</linearGradient>
		<polygon class="st0" points="295.9,94.1 310.9,47.8 261,31.7 245.9,77.8 		"/>
	</g>
</g>
<g>
	<g>
		<defs>
			<path id="SVGID_4_" d="M242.5,26.8c-1.1,0.4-1.8,1.8-2.6,2.4c-2.4,3-13.3,19.5-7.4,35.7c3.4,9.7,13.3,11.9,18.8,9.9
				c5.4-2.1,7.4-6.6,5.9-10.4c-2.5-7-9.3-7-11.9-7h-0.6c-1.4,0-3.5-1.6-4.3-3.6c-3-8.5,1.5-18.8,3.9-23.4c0.8-1.5,0.8-1.9,0.5-2.8
				c-0.1-0.6-0.5-1-1.1-1C243.2,26.5,242.8,26.6,242.5,26.8"/>
		</defs>
		<clipPath id="SVGID_5_">
			<use xlink:href="#SVGID_4_"  style="overflow:visible;"/>
		</clipPath>
		
			<linearGradient id="SVGID_6_" gradientUnits="userSpaceOnUse" x1="-265.9881" y1="-242.8638" x2="-263.7676" y2="-242.8638" gradientTransform="matrix(8.7589 6.8371 6.8371 -8.7589 4223.8105 -263.9662)">
			<stop  offset="0" style="stop-color:#73BDE9"/>
			<stop  offset="0.102" style="stop-color:#73BDE9"/>
			<stop  offset="0.6314" style="stop-color:#0898CC"/>
			<stop  offset="1" style="stop-color:#0898CC"/>
		</linearGradient>
		<polygon class="st1" points="202.1,57.8 246.5,92.4 283,45.6 238.7,11 		"/>
	</g>
</g>
<g>
	<g>
		<defs>
			<path id="SVGID_7_" d="M263.8,11.2c-8.4,0.1-13.8,6.6-14.6,11.6c-1,5.8,1.9,9.7,6.1,10.4c8,1.4,11.3-5.8,12.2-7.4
				c0.8-1.3,3.3-2.3,5.3-1.9c8.9,1.5,15.5,10.6,18.5,15.1c0.9,1.5,1.1,1.6,2.1,1.8c0.9,0.1,1.5-0.4,1.8-1.6c0.1-1.1-0.5-2.4-0.8-3.4
				c-1.4-3.5-10.2-21.4-27.1-24.2c-0.9-0.1-1.8-0.3-2.8-0.3h-0.6V11.2z"/>
		</defs>
		<clipPath id="SVGID_8_">
			<use xlink:href="#SVGID_7_"  style="overflow:visible;"/>
		</clipPath>
		
			<linearGradient id="SVGID_9_" gradientUnits="userSpaceOnUse" x1="-274.4898" y1="-242.5133" x2="-272.2693" y2="-242.5133" gradientTransform="matrix(-15.0263 3.9043 3.9043 15.0263 -2888.9155 4737.3633)">
			<stop  offset="0" style="stop-color:#73BDE9"/>
			<stop  offset="0.102" style="stop-color:#73BDE9"/>
			<stop  offset="0.6314" style="stop-color:#0898CC"/>
			<stop  offset="1" style="stop-color:#0898CC"/>
		</linearGradient>
		<polygon class="st2" points="292.3,-0.3 241,13.1 251.2,52.3 302.5,39 		"/>
	</g>
</g>
<path class="st3" d="M257.9,54.6c3,4.4,9,5.3,13.3,2.4c4.3-3,5.3-9,2.3-13.3c-3-4.3-9-5.3-13.2-2.3
	C255.9,44.5,254.9,50.4,257.9,54.6"/>
<path class="st4" d="M156,58.3c0,2.9-0.5,6.8-5,6.8c-1.3,0-3-0.1-4.3-0.3l-0.4-0.1V47.8l0.4-0.1c1-0.1,2.6-0.1,4.3-0.1
	c4.5,0,5,3.8,5,6.8V58.3z M163.7,54.1c0-8.4-4.4-12.9-12.7-12.9c-4.9,0-9.3,1-10.9,1.4c-1.4,0.3-1.4,0.5-1.4,1.1v36.6
	c0,0.3,0.4,0.6,0.8,0.6h6.4c0.4,0,0.6-0.4,0.6-0.6v-9.6l0.5,0.1c1.6,0.1,3.3,0.4,4.2,0.4c8.3,0,12.7-4.7,12.7-12.9v-4.2H163.7z"/>
<path class="st4" d="M133.2,70.1v-4c0-0.1,0-0.5-0.8-0.5h-2.5c-1.9,0-2.1-0.8-2.1-2.8V47.2h4.7c0.4,0,0.6-0.4,0.6-0.8v-4.2
	c0-0.4-0.3-0.6-0.6-0.6h-4.7v-5.9c0-0.3-0.1-0.5-0.5-0.5h-0.2l-6.4,1.1c-0.4,0-0.8,0.3-0.8,0.6v4.7h-4.5c-0.4,0-0.8,0.4-0.8,0.8v3.4
	c0,0.5,0.4,0.8,0.8,0.8l4.4,0.8v15.3c0,7.3,2.8,8.7,8.4,8.7c1.5,0,2.5-0.1,4-0.5C132.9,70.6,133.2,70.5,133.2,70.1"/>
<path class="st4" d="M110.7,69.6v-4.7c0-0.3-0.4-0.5-0.6-0.5h-0.2c-1.9,0.1-3.4,0.4-6.4,0.4c-2.1,0-4.7-1.1-4.7-6.4v-4.4
	c0-5.3,2.5-6.5,4.7-6.5c3,0,4.4,0.1,6.4,0.4h0.1c0.3,0,0.6-0.1,0.6-0.5v-4.7c0-0.5-0.1-0.6-0.8-0.8c-1.5-0.4-3.8-0.8-6.9-0.8
	c-7.4,0-11.8,4.8-11.8,12.8v4.4c0,8,4.4,12.8,11.8,12.8c3,0,5.3-0.5,6.9-0.8C110.6,70.3,110.7,70.1,110.7,69.6"/>
<path class="st4" d="M206.3,58.1c0,5.5-2.8,6.8-5,6.8c-3.3,0-5-2.4-5-6.8v-3.7c0-4.4,1.8-6.8,5-6.8c2.3,0,5,1.1,5,6.8V58.1z
	 M213.9,54.3c0-8.4-4.5-13.2-12.6-13.2c-8,0-12.7,4.9-12.7,13.2v3.7c0,8.3,4.7,13.2,12.7,13.2s12.6-4.8,12.6-13.2V54.3z"/>
<path class="st4" d="M184.7,41.1c-2.4,0-4.9,0.9-6.8,2.4l-0.6,0.5v-1.9c0-0.4-0.3-0.6-0.6-0.6h-6.3c-0.4,0-0.6,0.3-0.6,0.6V70
	c0,0.4,0.4,0.8,0.8,0.8h6.4c0.3,0,0.6-0.4,0.6-0.8V49.4l0.1-0.1c2.4-1.3,4.5-1.8,7-1.8h0.4c0.3,0,0.5-0.4,0.5-0.6v-4.9
	C185.3,41.5,185.1,41.1,184.7,41.1"/>
<path class="st4" d="M43,61.2l5.4,8.7c0.5,0.8,0.8,1,1.1,1h7.9c0.1,0,0.4-0.1,0.4-0.4c0-0.1-0.1-0.1-0.1-0.1L48,56.2l8.8-13.8V42
	c0-0.1,0-0.3-0.1-0.3h-7c-0.3,0-0.5,0.1-1,0.9l-4.5,7.7l-5-7.7c-0.4-0.6-0.6-0.9-1-0.9h-7.9c-0.1,0-0.4,0.1-0.4,0.4v0.1l9,13.4
	l-9.3,14.6v0.3c0,0.3,0.1,0.3,0.1,0.3h7c0.4,0,0.6-0.1,1.1-0.9L43,61.2z"/>
<path class="st4" d="M77.4,64.3l-0.3,0.1c-1.5,0.8-3,1.1-4.4,1.1c-2.3,0-3.7-0.5-3.7-2.9v-0.5c0-3,1.4-4.2,4.9-4.2h3.4v6.5H77.4z
	 M73.1,41.1c-3.3,0-6.9,0.6-9,1.1c-0.3,0.1-0.8,0.3-0.8,0.8v4.2c0,0.4,0.1,0.5,0.6,0.5H64c1.5-0.1,5.3-0.4,8.7-0.4
	c2.1,0,4.3,0.5,4.3,4v2.2h-3.1c-8.7,0-12.4,2.5-12.4,8.5v0.5c0,7.4,5.3,8.7,8.5,8.7c2.8,0,4.8-0.8,7-2.3l0.6-0.5V70
	c0,0.4,0.3,0.8,0.6,0.8H84c0.4,0,0.6-0.4,0.6-0.8V51.4C84.9,44.6,81.1,41.1,73.1,41.1"/>
<path class="st4" d="M17.9,54H7.7v-0.6c0-3.8,1.9-6.3,5.2-6.3c3.1,0,5,2.3,5,6.3V54z M12.8,41.1C4.8,41.1,0,46.3,0,54.5v3.7
	c0,12.1,9.8,13.1,12.7,13.1c4.7,0,7.5-0.5,10.5-1.3c0.8-0.1,0.8-0.4,0.8-1v-4c0-0.1,0-0.5-0.6-0.5h-0.2c-2.1,0.3-6.9,0.5-10,0.5
	c-3.7,0-5.7-2.1-5.7-6.1v-0.4h17c0.6,0,0.8-0.5,0.8-0.9v-3C25.4,46.3,20.7,41.1,12.8,41.1"/>
<path class="st4" d="M35.9,96.5c-0.4,0-0.8,0.1-2.1,0.1c-1.4,0-2.4-0.4-2.4-2.1v-3.8c0-1.8,1.1-2.1,2.4-2.1s1.8,0.1,2.1,0.1
	c0.1,0.1,0.1,0.1,0.1,0.3v0.6c0,0.1-0.1,0.3-0.1,0.3h-2.1c-0.6,0-0.9,0.1-0.9,0.9v1.1h2.9c0.1,0,0.3,0.1,0.3,0.1v0.8
	c0,0.1-0.1,0.1-0.3,0.1h-2.9v1.4c0,0.8,0.3,0.9,0.9,0.9h2.1c0.1,0,0.1,0.1,0.1,0.3V96C36.1,96.4,36.1,96.5,35.9,96.5"/>
<path class="st4" d="M45.5,96.7h-1.3c-0.1,0-0.1-0.1-0.3-0.3l-1.5-2.5l-1.5,2.5c0,0.1-0.1,0.3-0.3,0.3h-1.1c-0.1,0-0.1-0.1-0.1-0.1
	v-0.1l2.3-3.8l-2.4-3.8v-0.1c0-0.1,0.1-0.1,0.1-0.1h1.3c0.1,0,0.1,0.1,0.3,0.1l1.5,2.4l1.5-2.4c0.1-0.1,0.1-0.1,0.3-0.1h1.1
	c0.1,0,0.1,0,0.1,0.1v0.1l-2.3,3.8l2.4,3.8v0.1C45.7,96.5,45.6,96.7,45.5,96.7"/>
<path class="st4" d="M50.1,96.7h-1c-0.1,0-0.3-0.1-0.3-0.3v-7.7c0-0.1,0.1-0.1,0.3-0.1h1c0.1,0,0.3,0.1,0.3,0.1v7.7
	C50.4,96.4,50.4,96.7,50.1,96.7"/>
<path class="st4" d="M59.2,89.8h-1.9v6.6c0,0.1-0.1,0.3-0.3,0.3h-1c-0.1,0-0.3-0.1-0.3-0.3v-6.6h-1.8c-0.1,0-0.3,0-0.3-0.1v-0.8
	c0-0.1,0.1-0.1,0.3-0.1h5.2c0.1,0,0.1,0.1,0.1,0.1v0.8C59.4,89.8,59.3,89.8,59.2,89.8"/>
<path class="st4" d="M65.5,96.7c-1.8,0-2.9-0.8-2.9-3v-4.8c0-0.1,0.1-0.1,0.1-0.1h1.1c0.1,0,0.1,0.1,0.1,0.1v4.8
	c0,1.1,0.4,1.8,1.5,1.8c1.1,0,1.5-0.6,1.5-1.8v-4.8c0-0.1,0.1-0.1,0.3-0.1h1.1c0.1,0,0.1,0.1,0.1,0.1v4.8
	C68.6,95.9,67.3,96.7,65.5,96.7"/>
<path class="st4" d="M74.3,96.7c-0.8,0-1.4,0-1.9-0.1c-0.1,0-0.1-0.1-0.1-0.1v-0.8c0-0.1,0.1-0.1,0.1-0.1c0.5,0.1,1.5,0.1,1.9,0.1
	c1,0,1.3-0.3,1.3-0.9c0-0.5-0.1-0.6-0.9-1.1l-1.5-1.1c-1-0.6-1.3-1.3-1.3-2c0-1.1,0.8-2,2.8-2c0.8,0,1.6,0.1,2,0.1
	c0.1,0,0.3,0.1,0.3,0.1v0.8c0,0.1-0.1,0.1-0.1,0.1h-0.3c-0.6-0.1-1.4-0.1-2.1-0.1s-1.1,0.3-1.1,0.8c0,0.4,0.1,0.5,0.8,1l1.4,0.8
	c1.1,0.6,1.5,1.3,1.5,2.1C77,95.5,76.4,96.7,74.3,96.7"/>
<path class="st4" d="M88.2,89.9c0-0.1,0-0.1-0.1-0.1s-0.1,0-0.1,0.1l-0.8,3.3h1.9L88.2,89.9z M91.2,96.7h-1.1
	c-0.1,0-0.1-0.1-0.1-0.3l-0.5-2H87l-0.5,2c0,0.1-0.1,0.3-0.1,0.3h-1.1c-0.1,0-0.3-0.1-0.3-0.3h0.1l1.8-6.8c0.3-1,1-1.1,1.5-1.1
	c0.5,0,1.3,0.1,1.5,1.1l1.8,6.8C91.4,96.5,91.3,96.7,91.2,96.7"/>
<path class="st4" d="M99.1,96.5c-0.1,0-0.9,0.1-1.8,0.1c-1.3,0-3-0.6-3-3.3v-1.5c0-2.8,1.8-3.3,3-3.3c0.8,0,1.5,0.1,1.8,0.1
	c0.1,0,0.3,0.1,0.3,0.1v0.8c0,0.1-0.1,0.3-0.3,0.3c-0.4-0.1-1.1-0.1-1.6-0.1c-0.9,0-1.6,0.5-1.6,2v1.5c0,1.5,0.8,2,1.6,2
	c0.5,0,1.3,0,1.6-0.1c0.1,0,0.3,0.1,0.3,0.3v0.8C99.4,96.4,99.3,96.4,99.1,96.5"/>
<path class="st4" d="M107.8,89.8h-1.9v6.6c0,0.1-0.1,0.3-0.1,0.3h-1.1c-0.1,0-0.1-0.1-0.1-0.3v-6.6h-1.9c-0.1,0-0.1,0-0.1-0.1v-0.8
	c0-0.1,0.1-0.1,0.1-0.1h5.3c0.1,0,0.1,0.1,0.1,0.1v0.8C108,89.8,107.9,89.8,107.8,89.8"/>
<path class="st4" d="M114.2,89.9c0-0.1-0.1-0.1-0.1-0.1c-0.1,0-0.1,0-0.1,0.1l-0.8,3.3h1.8L114.2,89.9z M117.1,96.7H116
	c-0.1,0-0.1-0.1-0.1-0.3l-0.5-2h-2.5l-0.5,2c0,0.1-0.1,0.3-0.1,0.3h-1.3c-0.1,0-0.1-0.1-0.1-0.3l1.8-6.8c0.1-1,1-1.1,1.5-1.1
	c0.5,0,1.3,0.1,1.5,1.1l1.8,6.8C117.2,96.5,117.2,96.7,117.1,96.7"/>
<path class="st4" d="M129.4,91c0-0.9-0.5-1.3-1.6-1.3c-0.1,0-0.8,0.1-0.9,0.1v2.5h0.9C129,92.4,129.4,92,129.4,91 M127.8,93.6
	c-0.3,0-0.8-0.1-0.9-0.1v2.8c0,0.1-0.1,0.3-0.3,0.3h-1.1c-0.1,0-0.1-0.1-0.1-0.3v-7.4c0-0.3,0.1-0.3,0.4-0.4
	c0.5-0.1,1.3-0.1,2.1-0.1c1.6,0,3,0.5,3,2.4V91C130.9,93,129.4,93.6,127.8,93.6"/>
<path class="st4" d="M138.4,90.9c0-0.8-0.5-1.1-1.6-1.1h-1v2.4h1C137.7,92.3,138.4,92,138.4,90.9 M139.9,96.7h-1.3
	c-0.1,0-0.1-0.1-0.3-0.3l-1.5-2.8h-0.1c-0.3,0-0.8-0.1-1-0.1v2.9c0,0.1-0.1,0.3-0.1,0.3h-1.1c-0.1,0-0.1-0.1-0.1-0.3v-7.5
	c0-0.3,0.1-0.3,0.4-0.4c0.5-0.1,1.3-0.1,2.1-0.1c1.6,0,3,0.5,3,2.4V91c0,1.1-0.5,1.9-1.5,2.3l1.6,3c0.1,0,0.1,0.1,0.1,0.1
	C140.1,96.5,140.1,96.7,139.9,96.7"/>
<path class="st4" d="M147.9,91.9c0-1.5-0.5-2.1-1.5-2.1s-1.5,0.6-1.5,2.1v1.5c0,1.4,0.5,2,1.5,2c1.1,0,1.5-0.6,1.5-2V91.9z
	 M146.2,96.7c-1.8,0-3-0.9-3-3.3v-1.5c0-2.4,1.4-3.4,3-3.4c1.8,0,3,1,3,3.4v1.5C149.4,95.8,148.1,96.7,146.2,96.7"/>
<path class="st4" d="M157.2,94.1c0-0.5-0.4-1.1-1.4-1.1h-1.4v2.4h0.9c1.4,0,1.8-0.4,1.8-1.1v-0.1h0.1V94.1z M157,90.9
	c0-0.8-0.5-1.1-1.8-1.1c-0.2,0-0.5,0-0.8,0.1V92h1.4C156.8,92,157,91.5,157,90.9 M155.4,96.7c-0.9,0-1.5,0-1.8-0.1
	c-0.4-0.1-0.5-0.1-0.5-0.5v-6.9c0-0.4,0.1-0.5,0.5-0.5c0.3-0.1,1-0.1,1.8-0.1c1.9,0,3.3,0.5,3.3,2.1v0.1c0,0.8-0.2,1.4-0.9,1.6
	c0.6,0.3,1,0.8,1,1.6v0.1C158.5,96.2,157.3,96.7,155.4,96.7"/>
<path class="st4" d="M165.1,89.9l-0.1-0.1c-0.1,0-0.1,0-0.1,0.1l-0.8,3.3h1.9L165.1,89.9z M168,96.7h-1.1c-0.1,0-0.1-0.1-0.1-0.3
	l-0.5-2h-2.4l-0.5,2c0,0.1-0.1,0.3-0.1,0.3h-1.1c-0.1,0-0.1-0.1-0.1-0.3l1.8-6.8c0.3-1,1.1-1.1,1.5-1.1c0.5,0,1.1,0.1,1.5,1.1
	l1.8,6.8C168.1,96.5,168.1,96.7,168,96.7"/>
<path class="st4" d="M176.2,89.8h-1.9v6.6c0,0.1-0.1,0.3-0.1,0.3H173c-0.1,0-0.1-0.1-0.1-0.3v-6.6H171c-0.1,0-0.1,0-0.1-0.1v-0.8
	c0-0.1,0.1-0.1,0.1-0.1h5.3c0.1,0,0.1,0.1,0.1,0.1v0.8C176.5,89.8,176.4,89.8,176.2,89.8"/>
</svg>
